<svg width="128" height="40" viewBox="0 0 128 40" fill="none" xmlns="http://www.w3.org/2000/svg">
<path d="M121.391 13.6166C123.268 13.6166 124.837 14.255 126.097 15.5319C127.366 16.8088 128 18.3923 128 20.2824C128 22.1641 127.366 23.7434 126.097 25.0203C124.829 26.2972 123.26 26.9356 121.391 26.9356C119.521 26.9356 117.948 26.2972 116.671 25.0203C115.403 23.7434 114.769 22.1641 114.769 20.2824C114.769 18.3923 115.403 16.8088 116.671 15.5319C117.94 14.255 119.513 13.6166 121.391 13.6166ZM121.391 16.2753C120.247 16.2753 119.296 16.6575 118.537 17.422C117.785 18.178 117.41 19.1315 117.41 20.2824C117.41 21.4248 117.79 22.3783 118.549 23.1428C119.308 23.8988 120.256 24.2768 121.391 24.2768C122.526 24.2768 123.469 23.8988 124.22 23.1428C124.979 22.3783 125.359 21.4248 125.359 20.2824C125.359 19.1399 124.979 18.1864 124.22 17.422C123.469 16.6575 122.526 16.2753 121.391 16.2753Z" fill="#0F172A"/>
<path d="M114.071 14.0576C114.147 14.0828 114.185 14.1416 114.185 14.234C114.185 14.4524 113.992 14.8262 113.605 15.3555C113.218 15.8847 112.949 16.2501 112.798 16.4517C112.428 16.3341 112.033 16.2753 111.613 16.2753C110.461 16.2753 109.503 16.6575 108.738 17.422C107.981 18.178 107.603 19.1315 107.603 20.2824V26.9356H104.942V20.2824C104.942 18.3923 105.581 16.8088 106.859 15.5319C108.137 14.255 109.721 13.6166 111.613 13.6166C112.487 13.6166 113.306 13.7636 114.071 14.0576Z" fill="#0F172A"/>
<path d="M103.543 19.7118H103.58V27.0328H100.92V25.7097C99.7343 26.5918 98.4019 27.0328 96.9223 27.0328C95.0308 27.0328 93.4462 26.3986 92.1684 25.1301C90.8906 23.8532 90.2517 22.2697 90.2517 20.3796C90.2517 18.4895 90.8906 16.906 92.1684 15.6291C93.4462 14.3522 95.0308 13.7138 96.9223 13.7138C98.6709 13.7138 100.167 14.2808 101.411 15.4149C102.664 16.5406 103.374 17.9728 103.543 19.7118ZM96.9223 16.3851C95.779 16.3851 94.8249 16.7674 94.0599 17.5318C93.2949 18.2879 92.9124 19.2371 92.9124 20.3796C92.9124 21.5221 93.2949 22.4755 94.0599 23.24C94.8249 23.996 95.779 24.374 96.9223 24.374C98.0656 24.374 99.0156 23.996 99.7722 23.24C100.537 22.4755 100.92 21.5221 100.92 20.3796C100.92 19.2371 100.537 18.2879 99.7722 17.5318C99.0156 16.7674 98.0656 16.3851 96.9223 16.3851Z" fill="#0F172A"/>
<path d="M82.1343 13.394C84.0258 13.394 85.6063 14.0307 86.8757 15.3041C88.1535 16.5775 88.7924 18.1566 88.7924 20.0415C88.7924 21.9181 88.1535 23.493 86.8757 24.7664C85.5979 26.0398 84.0174 26.6765 82.1343 26.6765C80.6464 26.6765 79.3097 26.2325 78.1244 25.3445V33.324H75.4637V19.3755H75.5015C75.6697 17.633 76.3758 16.2005 77.62 15.0779C78.8726 13.9553 80.3774 13.394 82.1343 13.394ZM82.1343 16.0455C80.9826 16.0455 80.0243 16.4267 79.2593 17.189C78.5027 17.943 78.1244 18.8938 78.1244 20.0415C78.1244 21.1809 78.5069 22.1317 79.2719 22.8941C80.0369 23.648 80.991 24.025 82.1343 24.025C83.2776 24.025 84.2276 23.648 84.9842 22.8941C85.7492 22.1317 86.1317 21.1809 86.1317 20.0415C86.1317 18.9022 85.7492 17.9514 84.9842 17.189C84.2276 16.4267 83.2776 16.0455 82.1343 16.0455Z" fill="#0F172A"/>
<path d="M67.4436 13.6166C69.3351 13.6166 70.9155 14.255 72.1849 15.5319C73.4627 16.8088 74.1016 18.3923 74.1016 20.2824C74.1016 22.1641 73.4627 23.7434 72.1849 25.0203C70.9071 26.2972 69.3267 26.9356 67.4436 26.9356C65.5605 26.9356 63.9759 26.2972 62.6897 25.0203C61.4119 23.7434 60.773 22.1641 60.773 20.2824C60.773 18.3923 61.4119 16.8088 62.6897 15.5319C63.9675 14.255 65.5521 13.6166 67.4436 13.6166ZM67.4436 16.2753C66.2919 16.2753 65.3336 16.6575 64.5686 17.422C63.812 18.178 63.4337 19.1315 63.4337 20.2824C63.4337 21.4248 63.8162 22.3783 64.5812 23.1428C65.3462 23.8988 66.3003 24.2768 67.4436 24.2768C68.5869 24.2768 69.5369 23.8988 70.2934 23.1428C71.0584 22.3783 71.4409 21.4248 71.4409 20.2824C71.4409 19.1399 71.0584 18.1864 70.2934 17.422C69.5369 16.6575 68.5869 16.2753 67.4436 16.2753Z" fill="#0F172A"/>
<path d="M52.6556 13.7138C54.5471 13.7138 56.1275 14.3505 57.3969 15.6238C58.6747 16.8972 59.3136 18.4764 59.3136 20.3613V26.9962C59.3136 28.8728 58.6747 30.4477 57.3969 31.7211C56.1191 33.0028 54.5387 33.6437 52.6556 33.6437C51.2685 33.6437 50.0202 33.2709 48.9105 32.5253C47.8008 31.7797 46.9854 30.7661 46.4642 29.4843L49.024 28.6675C49.7301 30.209 50.9407 30.9797 52.6556 30.9797C53.7989 30.9797 54.7489 30.5985 55.5055 29.8362C56.2705 29.0822 56.653 28.1355 56.653 26.9962V25.6768C55.4676 26.5564 54.1352 26.9962 52.6556 26.9962C50.7641 26.9962 49.1795 26.3637 47.9017 25.0987C46.6239 23.8254 45.985 22.2462 45.985 20.3613C45.985 18.4764 46.6239 16.8972 47.9017 15.6238C49.1795 14.3505 50.7641 13.7138 52.6556 13.7138ZM52.6556 16.3778C51.5123 16.3778 50.5582 16.759 49.7932 17.5213C49.0282 18.2753 48.6457 19.2219 48.6457 20.3613C48.6457 21.5006 49.0282 22.4515 49.7932 23.2138C50.5582 23.9678 51.5123 24.3448 52.6556 24.3448C53.7989 24.3448 54.7489 23.9678 55.5055 23.2138C56.2705 22.4515 56.653 21.5006 56.653 20.3613C56.653 19.2219 56.2705 18.2753 55.5055 17.5213C54.7489 16.759 53.7989 16.3778 52.6556 16.3778Z" fill="#0F172A"/>
<path d="M22.1707 31.3395C24.6244 33.1887 27.3914 34.1134 30.4716 34.1134C31.82 34.1134 33.0934 33.9546 34.2918 33.6373C31.1937 37.027 26.949 39.3521 22.1707 40V31.3395Z" fill="#A855F7"/>
<path d="M16.6629 39.9934C11.8696 39.3312 7.61616 36.9806 4.52296 33.5617C5.7102 33.87 6.96951 34.0243 8.30088 34.0243C11.5138 34.0243 14.3011 33.1263 16.6629 31.3306V39.9934Z" fill="#A855F7"/>
<path d="M30.4716 11.9745C32.8383 11.9745 34.8048 12.7683 36.371 14.3558C37.9546 15.9434 38.7464 17.9236 38.7464 20.2962C38.7464 22.6688 37.9546 24.649 36.371 26.2365C34.8048 27.8067 32.8383 28.5917 30.4716 28.5917C28.1049 28.5917 26.1297 27.8066 24.5461 26.2365C22.9625 24.649 22.1707 22.6688 22.1707 20.2962C22.1707 17.9061 22.9538 15.926 24.52 14.3558C26.1036 12.7683 28.0875 11.9745 30.4716 11.9745Z" fill="#F97316"/>
<path d="M8.30088 11.9568C10.6676 11.9568 12.6341 12.748 14.2003 14.3304C15.7839 15.9129 16.5757 17.8867 16.5757 20.2516C16.5757 22.6166 15.7839 24.5904 14.2003 26.1729C12.6341 27.7379 10.6676 28.5204 8.30088 28.5205C5.93418 28.5204 3.95898 27.7379 2.37538 26.1729C0.791779 24.5904 3.4103e-06 22.6166 0 20.2516C3.93126e-06 17.8693 0.783074 15.8955 2.34928 14.3304C3.93289 12.748 5.91678 11.9568 8.30088 11.9568Z" fill="#10B981"/>
<path d="M19.4417 0C25.5659 0 31.0503 2.73615 34.7382 7.05166C33.4129 6.6525 31.9907 6.45287 30.4716 6.45287C26.8345 6.45287 23.7195 7.62174 21.1266 9.95947C20.4734 10.5524 19.8919 11.1868 19.3819 11.8628C19.0003 11.3618 18.5784 10.88 18.1159 10.4178C15.4881 7.77454 12.2164 6.45288 8.30088 6.45287C6.841 6.45287 5.46938 6.63662 4.1861 7.00407C7.87354 2.71603 13.3401 7.1487e-06 19.4417 0Z" fill="#A855F7"/>
</svg>
